<svg xmlns="http://www.w3.org/2000/svg" viewBox="0 0 306.49 154.79"><defs><style>.cls-1{fill:#232323;}</style></defs><g id="Layer_2" data-name="Layer 2"><g id="Layer_1-2" data-name="Layer 1"><path class="cls-1" d="M32.47,48.94A24.89,24.89,0,0,1,26.9,45.8,15.09,15.09,0,0,1,23,41.41a11.65,11.65,0,0,1-1.48-6,13.11,13.11,0,0,1,1.63-6.56,14.86,14.86,0,0,1,4.27-4.78,19.69,19.69,0,0,1,6-2.91,24.3,24.3,0,0,1,6.84-1,26.59,26.59,0,0,1,5.17.52,21.82,21.82,0,0,1,4.81,1.54,17.63,17.63,0,0,1,4.05,2.57,12,12,0,0,1,2.91,3.66,3.56,3.56,0,0,1,.42,2.21,3,3,0,0,1-.85,1.66,3.36,3.36,0,0,1-1.78,1,3,3,0,0,1-2-.24,22.18,22.18,0,0,0-5.41-4.6,13.23,13.23,0,0,0-6.75-1.63,19.85,19.85,0,0,0-4.2.45,12.38,12.38,0,0,0-3.76,1.46,8.17,8.17,0,0,0-2.69,2.57,7,7,0,0,0-1,3.87,6.65,6.65,0,0,0,.94,3.6,9.07,9.07,0,0,0,2.57,2.6,18.1,18.1,0,0,0,3.78,1.94c1.44.54,3,1.06,4.57,1.54,2.58.81,5,1.64,7.35,2.51a27.08,27.08,0,0,1,6.14,3.18,14.74,14.74,0,0,1,4.24,4.5A12.26,12.26,0,0,1,60.3,61.5,14,14,0,0,1,58.76,68a16.45,16.45,0,0,1-4.21,5.2,19.52,19.52,0,0,1-6.23,3.45,23.16,23.16,0,0,1-7.68,1.24,30.43,30.43,0,0,1-6-.6A24.87,24.87,0,0,1,29,75.44a19.78,19.78,0,0,1-4.75-3.11,14.47,14.47,0,0,1-3.38-4.42,3.87,3.87,0,0,1-.52-3,3.22,3.22,0,0,1,1.51-2,3.84,3.84,0,0,1,2.6-.4,4.45,4.45,0,0,1,2.7,1.76,13.17,13.17,0,0,0,5.41,5.23,17.79,17.79,0,0,0,8.08,1.67,15.94,15.94,0,0,0,4.57-.67,13.73,13.73,0,0,0,3.93-1.87,9.37,9.37,0,0,0,2.75-3,7.47,7.47,0,0,0,1-3.87,6.61,6.61,0,0,0-1.15-3.93A10.4,10.4,0,0,0,48.65,55a23.1,23.1,0,0,0-4.47-2.08c-1.68-.59-3.42-1.12-5.24-1.61Q35.63,50.25,32.47,48.94Z"/><path class="cls-1" d="M81.93,73.69a3.54,3.54,0,0,1-1.12,2.66,3.88,3.88,0,0,1-5.39,0,3.57,3.57,0,0,1-1.11-2.66V3.75a3.54,3.54,0,0,1,1.11-2.69,4,4,0,0,1,5.39,0,3.52,3.52,0,0,1,1.12,2.69Z"/><path class="cls-1" d="M105,52.6a19.81,19.81,0,0,0,2.27,7.08,20.81,20.81,0,0,0,10.74,9.5,20,20,0,0,0,7.44,1.39,20.37,20.37,0,0,0,8.77-1.84,18.49,18.49,0,0,0,6.48-4.93,4.16,4.16,0,0,1,2-1,3.88,3.88,0,0,1,1.85.15,2.92,2.92,0,0,1,1.69,1.51,3.57,3.57,0,0,1-.6,5.14,24.21,24.21,0,0,1-8.26,6,27.91,27.91,0,0,1-5.48,1.76,30.76,30.76,0,0,1-6.41.63,27.75,27.75,0,0,1-11.22-2.27,29.55,29.55,0,0,1-9.17-6.17,28.8,28.8,0,0,1-6.2-9.16,29,29,0,0,1,0-22.48,29,29,0,0,1,6.2-9.14,29.73,29.73,0,0,1,9.17-6.17,27.92,27.92,0,0,1,11.22-2.27,28.34,28.34,0,0,1,11.19,2.24,28.76,28.76,0,0,1,15.37,15.22,28.22,28.22,0,0,1,2.36,11.16,3.6,3.6,0,0,1-1,2.63,3.53,3.53,0,0,1-2.66,1.06Zm41.56-6.41a20.42,20.42,0,0,0-2.2-7.35,20.78,20.78,0,0,0-4.6-5.93,21.2,21.2,0,0,0-14.19-5.35A20.38,20.38,0,0,0,117.9,29a21.58,21.58,0,0,0-6.39,4A20.55,20.55,0,0,0,107,38.9a19.85,19.85,0,0,0-2.12,7.29Z"/><path class="cls-1" d="M174.07,52.6a19.81,19.81,0,0,0,2.27,7.08,20.81,20.81,0,0,0,10.74,9.5,20,20,0,0,0,7.44,1.39,20.37,20.37,0,0,0,8.77-1.84,18.49,18.49,0,0,0,6.48-4.93,4.16,4.16,0,0,1,2-1,3.88,3.88,0,0,1,1.85.15,2.92,2.92,0,0,1,1.69,1.51,3.57,3.57,0,0,1-.6,5.14A24.56,24.56,0,0,1,211,72.93a24.22,24.22,0,0,1-4.57,2.63,27.91,27.91,0,0,1-5.48,1.76,30.76,30.76,0,0,1-6.41.63,27.78,27.78,0,0,1-11.22-2.27,29.55,29.55,0,0,1-9.17-6.17,28.8,28.8,0,0,1-6.2-9.16,29,29,0,0,1,0-22.48,29,29,0,0,1,6.2-9.14,29.73,29.73,0,0,1,9.17-6.17,28,28,0,0,1,11.22-2.27,28.34,28.34,0,0,1,11.19,2.24,28.76,28.76,0,0,1,15.37,15.22,28.22,28.22,0,0,1,2.36,11.16,3.6,3.6,0,0,1-1,2.63,3.52,3.52,0,0,1-2.66,1.06Zm41.57-6.41a20.76,20.76,0,0,0-6.81-13.28,21.15,21.15,0,0,0-14.19-5.35A20.38,20.38,0,0,0,186.93,29a21.58,21.58,0,0,0-6.39,4A20.55,20.55,0,0,0,176,38.9a19.85,19.85,0,0,0-2.12,7.29Z"/><rect class="cls-1" x="233.14" width="7.38" height="77.48" rx="3.69"/><path class="cls-1" d="M285.76,77.11a3.51,3.51,0,0,1-2.29-.86l-37.8-32.78,26.18-20.61a3.5,3.5,0,1,1,4.33,5.5L256.66,43.73,288.06,71a3.5,3.5,0,0,1-2.3,6.15Z"/><path class="cls-1" d="M55.42,114.65A28.68,28.68,0,0,0,40.11,99.34a28.17,28.17,0,0,0-11.25-2.27,28,28,0,0,0-11.19,2.27,29.46,29.46,0,0,0-9.2,6.17c-.29.29-.58.59-.85.89v-26a3.55,3.55,0,0,0-1.12-2.7,3.79,3.79,0,0,0-2.69-1.06,3.79,3.79,0,0,0-2.69,1.06A3.55,3.55,0,0,0,0,80.38v69.93A3.58,3.58,0,0,0,1.12,153a3.73,3.73,0,0,0,2.69,1.09A3.73,3.73,0,0,0,6.5,153a3.58,3.58,0,0,0,1.12-2.67v-4.94c.27.3.56.6.85.89a29.2,29.2,0,0,0,9.2,6.2,28,28,0,0,0,11.19,2.27,28.17,28.17,0,0,0,11.25-2.27,28.79,28.79,0,0,0,15.31-15.37,29.22,29.22,0,0,0,0-22.44Zm-7,19.45A21,21,0,0,1,44,140.85a21.63,21.63,0,0,1-6.74,4.56,21.21,21.21,0,0,1-16.64,0,21.42,21.42,0,0,1-6.72-4.56,21.8,21.8,0,0,1-4.5-6.75,21.19,21.19,0,0,1,0-16.49,21,21,0,0,1,11.22-11.19,20.74,20.74,0,0,1,8.29-1.66,20.92,20.92,0,0,1,8.35,1.66A21.49,21.49,0,0,1,44,110.93a20.57,20.57,0,0,1,4.51,6.68,21.67,21.67,0,0,1,0,16.49Z"/><path class="cls-1" d="M134.88,126a28.39,28.39,0,0,1,2.27-11.29,28.71,28.71,0,0,1,6.2-9.19,29.48,29.48,0,0,1,9.2-6.18,28.8,28.8,0,0,1,22.32,0A29.32,29.32,0,0,1,184,105.4a28.68,28.68,0,0,1,6.17,9,29.1,29.1,0,0,1,2.39,11.13v24.57a3.88,3.88,0,0,1-1.12,2.78,3.7,3.7,0,0,1-2.76,1.15,3.5,3.5,0,0,1-2.69-1.15,4,4,0,0,1-1.06-2.78l-.06-5.21a31.74,31.74,0,0,1-9.4,7.14,25.66,25.66,0,0,1-11.71,2.72,28,28,0,0,1-11.19-2.26,29.48,29.48,0,0,1-9.2-6.18,28.8,28.8,0,0,1-6.2-9.16A28,28,0,0,1,134.88,126Zm7.62,0a20.37,20.37,0,0,0,1.67,8.19,21.78,21.78,0,0,0,4.5,6.72,21.45,21.45,0,0,0,6.72,4.57,21.47,21.47,0,0,0,16.7,0,21.17,21.17,0,0,0,11.19-11.29,20.68,20.68,0,0,0,1.63-8.19,21.23,21.23,0,0,0-29.46-19.58,21.11,21.11,0,0,0-11.28,11.29A20.74,20.74,0,0,0,142.5,126Z"/><path class="cls-1" d="M217.31,107.18a30.17,30.17,0,0,1,9.86-7.38,28.53,28.53,0,0,1,12.4-2.72h.49a4,4,0,0,1,3,1,3.71,3.71,0,0,1,1,2.7,3.56,3.56,0,0,1-1.15,2.75,4,4,0,0,1-2.84,1.06h-.49a21.39,21.39,0,0,0-8.59,1.75,22.54,22.54,0,0,0-7.08,4.81,23.4,23.4,0,0,0-4.81,7.17,22,22,0,0,0-1.78,8.84v23a3.79,3.79,0,0,1-1.09,2.75,3.56,3.56,0,0,1-2.66,1.12,3.74,3.74,0,0,1-2.72-1.12,3.69,3.69,0,0,1-1.15-2.75V100.89a3.59,3.59,0,0,1,1.15-2.69,3.74,3.74,0,0,1,2.72-1.12,3.53,3.53,0,0,1,2.69,1.12,3.74,3.74,0,0,1,1.06,2.69Z"/><path class="cls-1" d="M306.49,150.32a3.6,3.6,0,0,1-1.12,2.66,3.88,3.88,0,0,1-5.39,0,3.6,3.6,0,0,1-1.12-2.66v-4.84a29.5,29.5,0,0,1-9.4,6.77,29,29,0,0,1-23,.21A29.14,29.14,0,0,1,251.1,137.1a28.89,28.89,0,0,1,0-22.45,28.89,28.89,0,0,1,6.2-9.13,29.55,29.55,0,0,1,9.19-6.18,29,29,0,0,1,23,.22,29.5,29.5,0,0,1,9.4,6.77V80.38A3.55,3.55,0,0,1,300,77.69a4,4,0,0,1,5.39,0,3.55,3.55,0,0,1,1.12,2.69Zm-50-24.45a21.22,21.22,0,0,0,6.14,15,21.92,21.92,0,0,0,6.72,4.57,20.36,20.36,0,0,0,8.32,1.69,20.6,20.6,0,0,0,8.35-1.69,21.09,21.09,0,0,0,11.19-11.32,21.21,21.21,0,0,0-4.48-23.17,21.12,21.12,0,0,0-15.06-6.17,20.91,20.91,0,0,0-8.29,1.66,21,21,0,0,0-11.22,11.2A20.52,20.52,0,0,0,256.51,125.87Z"/><path class="cls-1" d="M68.37,154.23H124.9V97.7H68.37Zm49.26-30.39a20.79,20.79,0,1,1-18.56-18.56A20.79,20.79,0,0,1,117.63,123.84Z"/></g></g></svg>