<svg xmlns="http://www.w3.org/2000/svg" viewBox="0 0 571.68 76.56"><defs><style>.cls-1{fill:#232323;}</style></defs><g id="Layer_2" data-name="Layer 2"><g id="Layer_1-2" data-name="Layer 1"><path class="cls-1" d="M16.62,37a30.19,30.19,0,0,1-7.29-3.91,19.45,19.45,0,0,1-5.2-5.66,14.84,14.84,0,0,1-2-7.79,16.89,16.89,0,0,1,2-8.2A20,20,0,0,1,9.36,5.28a24.52,24.52,0,0,1,7.32-3.91A26.05,26.05,0,0,1,25,0a30.68,30.68,0,0,1,6.6.7,26.82,26.82,0,0,1,6,2.07,23,23,0,0,1,5.08,3.39,18.22,18.22,0,0,1,3.79,4.7A2.47,2.47,0,0,1,46.74,13a4.17,4.17,0,0,1-1,1.72,3.64,3.64,0,0,1-2.13.9,3.46,3.46,0,0,1-2.54-.78A19.5,19.5,0,0,0,33.84,9a21.85,21.85,0,0,0-8.75-1.67,20,20,0,0,0-5.49.79,17.66,17.66,0,0,0-5,2.31,12.54,12.54,0,0,0-3.68,3.82A10,10,0,0,0,9.5,19.61,8.31,8.31,0,0,0,11.2,25a14.17,14.17,0,0,0,4.29,3.59,27.42,27.42,0,0,0,5.69,2.37q3.09.9,5.89,1.6,4.32,1.35,8.44,3a31.37,31.37,0,0,1,7.29,4.14,19.5,19.5,0,0,1,5.11,5.84,16.17,16.17,0,0,1,1.92,8.11,20.66,20.66,0,0,1-2,9.19,21.89,21.89,0,0,1-5.43,7.06,24.48,24.48,0,0,1-7.93,4.56A28.19,28.19,0,0,1,25,76.05a28.79,28.79,0,0,1-8-1.11,31.23,31.23,0,0,1-7.09-3,25.16,25.16,0,0,1-5.66-4.5,19.46,19.46,0,0,1-3.7-5.57,3.54,3.54,0,0,1-.27-3.12A4.21,4.21,0,0,1,2,56.85a2.93,2.93,0,0,1,2.54-.32A6,6,0,0,1,7.05,58.6a14.54,14.54,0,0,0,3,4.2A18.82,18.82,0,0,0,14.35,66a21.46,21.46,0,0,0,5.19,2,24.13,24.13,0,0,0,5.78.7,20.8,20.8,0,0,0,6.16-.94A17.18,17.18,0,0,0,37,65a14.37,14.37,0,0,0,4-4.64,13.12,13.12,0,0,0,1.52-6.39A9.71,9.71,0,0,0,41,48.36a13.63,13.63,0,0,0-4-3.86,28.68,28.68,0,0,0-5.67-2.74q-3.15-1.14-6.36-2.19A65.36,65.36,0,0,1,16.62,37Z"/><path class="cls-1" d="M283.06,76.41a3.58,3.58,0,0,1-2.59-1,3.45,3.45,0,0,1-1.08-2.57V5.32a3.42,3.42,0,0,1,1.08-2.6,3.63,3.63,0,0,1,2.59-1H303.2a18.48,18.48,0,0,1,7.53,1.54,20.26,20.26,0,0,1,6.13,4.18A19,19,0,0,1,321,13.58a19.26,19.26,0,0,1,1.49,7.55,18.4,18.4,0,0,1-2.13,8.79,19.58,19.58,0,0,1-5.69,6.62,21.47,21.47,0,0,1,4.55,3.27,20.78,20.78,0,0,1,3.5,4.32A21.2,21.2,0,0,1,325,49.32a20.92,20.92,0,0,1-5.6,21.05,21.85,21.85,0,0,1-7,4.43,23.07,23.07,0,0,1-8.63,1.61Zm3.68-67.36V33.86h15.94a11.73,11.73,0,0,0,5-1,13,13,0,0,0,3.94-2.8,13.11,13.11,0,0,0,2.59-4,11.88,11.88,0,0,0,.94-4.64,11.63,11.63,0,0,0-.94-4.61,12.75,12.75,0,0,0-6.48-6.69,11.44,11.44,0,0,0-4.84-1Zm0,31.46V69.05h16.75a15.05,15.05,0,0,0,6-1.17,14.83,14.83,0,0,0,4.72-3.12,14.39,14.39,0,0,0,3.13-4.55,13.9,13.9,0,0,0-3.16-15.61,14.24,14.24,0,0,0-4.78-3,16.37,16.37,0,0,0-6-1.08Z"/><path class="cls-1" d="M68.2,72.45A3.45,3.45,0,0,1,67.12,75a3.73,3.73,0,0,1-5.19,0,3.45,3.45,0,0,1-1.08-2.57V5a3.42,3.42,0,0,1,1.08-2.6,3.81,3.81,0,0,1,5.19,0A3.42,3.42,0,0,1,68.2,5Z"/><path class="cls-1" d="M91.46,52.1a19.08,19.08,0,0,0,2.19,6.83A20.45,20.45,0,0,0,98,64.42a20.12,20.12,0,0,0,6,3.68,19.41,19.41,0,0,0,7.18,1.34,19.63,19.63,0,0,0,8.46-1.78,17.71,17.71,0,0,0,6.25-4.76,4.14,4.14,0,0,1,1.89-1,3.7,3.7,0,0,1,1.78.14,2.88,2.88,0,0,1,1.64,1.46,3.57,3.57,0,0,1,.79,2.4,3.46,3.46,0,0,1-1.38,2.56,22.85,22.85,0,0,1-3.56,3.21,23.31,23.31,0,0,1-4.4,2.54,27,27,0,0,1-5.28,1.7,30.15,30.15,0,0,1-6.19.61,27,27,0,0,1-10.83-2.19,28.61,28.61,0,0,1-8.84-6,27.83,27.83,0,0,1-6-8.85,27.92,27.92,0,0,1,0-21.68,28,28,0,0,1,6-8.81,28.64,28.64,0,0,1,8.84-6,28,28,0,0,1,21.63,0A28,28,0,0,1,130.83,29a28.3,28.3,0,0,1,6,8.78,27.21,27.21,0,0,1,2.28,10.77,3.46,3.46,0,0,1-1,2.54,3.4,3.4,0,0,1-2.56,1Zm40.1-6.18a19.6,19.6,0,0,0-2.13-7.09A20.14,20.14,0,0,0,125,33.1a20.68,20.68,0,0,0-6.21-3.79,20.44,20.44,0,0,0-7.48-1.37,19.81,19.81,0,0,0-7.44,1.4,20.66,20.66,0,0,0-6.15,3.82,20,20,0,0,0-4.38,5.72,19.33,19.33,0,0,0-2,7Z"/><path class="cls-1" d="M155.16,52.1a19.08,19.08,0,0,0,2.19,6.83,20.45,20.45,0,0,0,4.35,5.49,20.12,20.12,0,0,0,6,3.68,19.41,19.41,0,0,0,7.18,1.34,19.63,19.63,0,0,0,8.46-1.78,17.71,17.71,0,0,0,6.25-4.76,4.14,4.14,0,0,1,1.89-1,3.7,3.7,0,0,1,1.78.14,2.88,2.88,0,0,1,1.64,1.46,3.57,3.57,0,0,1,.79,2.4,3.46,3.46,0,0,1-1.38,2.56,22.85,22.85,0,0,1-3.56,3.21,23.31,23.31,0,0,1-4.4,2.54,27,27,0,0,1-5.28,1.7,30.15,30.15,0,0,1-6.19.61,27,27,0,0,1-10.83-2.19,28.61,28.61,0,0,1-8.84-6,27.83,27.83,0,0,1-6-8.85,27.92,27.92,0,0,1,0-21.68,28,28,0,0,1,6-8.81,28.64,28.64,0,0,1,8.84-6,28,28,0,0,1,21.63,0A28,28,0,0,1,194.53,29a28.3,28.3,0,0,1,6,8.78,27.21,27.21,0,0,1,2.28,10.77,3.46,3.46,0,0,1-1,2.54,3.4,3.4,0,0,1-2.56,1Zm40.1-6.18a19.6,19.6,0,0,0-2.13-7.09,20.14,20.14,0,0,0-4.44-5.73,20.68,20.68,0,0,0-6.21-3.79A20.43,20.43,0,0,0,175,27.94a19.82,19.82,0,0,0-7.45,1.4,20.66,20.66,0,0,0-6.15,3.82A20,20,0,0,0,157,38.88a19.12,19.12,0,0,0-2,7Z"/><path class="cls-1" d="M404.2,48.24a27.34,27.34,0,0,1,2.19-10.89,27.8,27.8,0,0,1,6-8.87,28.51,28.51,0,0,1,8.87-5.95,27.75,27.75,0,0,1,21.54,0,28.37,28.37,0,0,1,8.79,5.86,27.54,27.54,0,0,1,5.95,8.73,27.9,27.9,0,0,1,2.3,10.74V71.52a3.7,3.7,0,0,1-1.08,2.69,3.55,3.55,0,0,1-2.65,1.11,3.38,3.38,0,0,1-2.6-1.11,3.82,3.82,0,0,1-1-2.69l-.06-5a30.72,30.72,0,0,1-9.07,6.88A24.84,24.84,0,0,1,432,76a27,27,0,0,1-10.8-2.19,28.51,28.51,0,0,1-8.87-6,27.83,27.83,0,0,1-6-8.85A26.93,26.93,0,0,1,404.2,48.24Zm7.36,0a19.73,19.73,0,0,0,1.6,7.91A20.63,20.63,0,0,0,424,67a20.6,20.6,0,0,0,16.11,0,20.46,20.46,0,0,0,10.79-10.88,20.06,20.06,0,0,0,1.58-7.91A20.29,20.29,0,0,0,432,27.75a20,20,0,0,0-8,1.61,20.38,20.38,0,0,0-10.89,10.88A20.05,20.05,0,0,0,411.56,48.24Z"/><path class="cls-1" d="M483.72,31.05a29.21,29.21,0,0,1,9.52-7.12,27.57,27.57,0,0,1,12-2.63h.47a3.82,3.82,0,0,1,2.86,1,3.6,3.6,0,0,1,1,2.6,3.45,3.45,0,0,1-1.11,2.66,3.89,3.89,0,0,1-2.74,1h-.47a20.63,20.63,0,0,0-8.29,1.69,21.8,21.8,0,0,0-6.83,4.64,22.55,22.55,0,0,0-4.64,6.92,21.27,21.27,0,0,0-1.72,8.52V72.55a3.65,3.65,0,0,1-1.05,2.65,3.44,3.44,0,0,1-2.57,1.08,3.63,3.63,0,0,1-2.62-1.08,3.55,3.55,0,0,1-1.11-2.65V25a3.5,3.5,0,0,1,1.11-2.6,3.63,3.63,0,0,1,2.62-1.08,3.42,3.42,0,0,1,2.6,1.08,3.66,3.66,0,0,1,1,2.6Z"/><path class="cls-1" d="M571.68,71.7a3.45,3.45,0,0,1-1.08,2.57,3.73,3.73,0,0,1-5.19,0,3.45,3.45,0,0,1-1.08-2.57V67a28.61,28.61,0,0,1-9.08,6.54,27.94,27.94,0,0,1-22.15.2A28.08,28.08,0,0,1,518.25,59a27.87,27.87,0,0,1,0-21.66,28,28,0,0,1,6-8.81,28.51,28.51,0,0,1,8.87-5.95,27.94,27.94,0,0,1,22.15.2,28.61,28.61,0,0,1,9.08,6.54v-25a3.42,3.42,0,0,1,1.08-2.6,3.81,3.81,0,0,1,5.19,0,3.42,3.42,0,0,1,1.08,2.6ZM523.47,48.12a20.46,20.46,0,0,0,5.92,14.45,21.29,21.29,0,0,0,6.48,4.4A20.53,20.53,0,0,0,552,67a20.81,20.81,0,0,0,6.48-4.4,20.46,20.46,0,0,0,4.32-6.51,20.46,20.46,0,0,0-4.32-22.36A20.65,20.65,0,0,0,552,29.36a20.81,20.81,0,0,0-16.05,0,20.18,20.18,0,0,0-10.82,10.79A19.85,19.85,0,0,0,523.47,48.12Z"/><path class="cls-1" d="M337.52,75.78h54.53V21.24H337.52Zm47.63-27.27a20.06,20.06,0,1,1-20-20A20.06,20.06,0,0,1,385.15,48.51Z"/><rect class="cls-1" x="212.15" y="1.36" width="7.12" height="74.74" rx="3.56"/><path class="cls-1" d="M263.88,75.74a3.35,3.35,0,0,1-2.21-.82L225.2,43.29l25.26-19.88a3.38,3.38,0,0,1,4.18,5.31L235.8,43.54l30.29,26.28a3.37,3.37,0,0,1-2.21,5.92Z"/></g></g></svg>